<svg width="512" height="512" viewBox="0 0 512 512" fill="none" xmlns="http://www.w3.org/2000/svg">
  <rect width="512" height="512" rx="120" fill="#163A31"/>
  <circle cx="256" cy="168" r="78" fill="#56D39B" fill-opacity="0.24"/>
  <path d="M143 217C143 206.507 151.507 198 162 198H193V171C193 160.507 201.507 152 212 152H300C310.493 152 319 160.507 319 171V198H350C360.493 198 369 206.507 369 217V295C369 305.493 360.493 314 350 314H319V341C319 351.493 310.493 360 300 360H212C201.507 360 193 351.493 193 341V314H162C151.507 314 143 305.493 143 295V217Z" fill="white"/>
  <rect x="218" y="177" width="76" height="20" rx="10" fill="#163A31"/>
  <rect x="170" y="230" width="40" height="52" rx="16" fill="#56D39B"/>
  <rect x="302" y="230" width="40" height="52" rx="16" fill="#56D39B"/>
</svg>
